<svg xmlns="http://www.w3.org/2000/svg" xmlns:xlink="http://www.w3.org/1999/xlink" id="Layer_1" data-name="Layer 1" version="1.1" viewBox="0 0 124 36" width="130"  height="38" >
  <defs>
    <style>
      .cls-1 {
        fill: url(#linear-gradient);
      }

      .cls-1, .cls-2, .cls-3, .cls-4, .cls-5, .cls-6, .cls-7, .cls-8, .cls-9, .cls-10, .cls-11, .cls-12 {
        stroke-width: 0px;
      }

      .cls-2 {
        fill: url(#linear-gradient-11);
      }

      .cls-3 {
        fill: url(#linear-gradient-12);
      }

      .cls-4 {
        fill: url(#linear-gradient-10);
      }

      .cls-5 {
        fill: url(#linear-gradient-4);
      }

      .cls-6 {
        fill: url(#linear-gradient-2);
      }

      .cls-7 {
        fill: url(#linear-gradient-3);
      }

      .cls-8 {
        fill: url(#linear-gradient-8);
      }

      .cls-9 {
        fill: url(#linear-gradient-9);
      }

      .cls-10 {
        fill: url(#linear-gradient-7);
      }

      .cls-11 {
        fill: url(#linear-gradient-5);
      }

      .cls-12 {
        fill: url(#linear-gradient-6);
      }
    </style>
    <linearGradient id="linear-gradient" x1="55.5" y1="17.4" x2="55.1" y2="37.4" gradientTransform="translate(0 38) scale(1 -1)" gradientUnits="userSpaceOnUse">
      <stop offset="0" stop-color="#f90"/>
      <stop offset=".4" stop-color="#ff17f6"/>
      <stop offset="1" stop-color="#fdb4ff"/>
    </linearGradient>
    <linearGradient id="linear-gradient-2" x1="75.5" y1="17.8" x2="75.1" y2="37.8" gradientTransform="translate(0 38) scale(1 -1)" gradientUnits="userSpaceOnUse">
      <stop offset="0" stop-color="#f90"/>
      <stop offset=".4" stop-color="#ff17f6"/>
      <stop offset="1" stop-color="#fdb4ff"/>
    </linearGradient>
    <linearGradient id="linear-gradient-3" x1="94.6" y1="18.2" x2="94.2" y2="38.2" gradientTransform="translate(0 38) scale(1 -1)" gradientUnits="userSpaceOnUse">
      <stop offset="0" stop-color="#f90"/>
      <stop offset=".4" stop-color="#ff17f6"/>
      <stop offset="1" stop-color="#fdb4ff"/>
    </linearGradient>
    <linearGradient id="linear-gradient-4" x1="115.1" y1="18.6" x2="114.7" y2="38.7" gradientTransform="translate(0 38) scale(1 -1)" gradientUnits="userSpaceOnUse">
      <stop offset="0" stop-color="#f90"/>
      <stop offset=".4" stop-color="#ff17f6"/>
      <stop offset="1" stop-color="#fdb4ff"/>
    </linearGradient>
    <linearGradient id="linear-gradient-5" x1="54.8" y1=".8" x2="54.5" y2="14.6" gradientTransform="translate(0 38) scale(1 -1)" gradientUnits="userSpaceOnUse">
      <stop offset="0" stop-color="#f90"/>
      <stop offset=".4" stop-color="#ff17f6"/>
      <stop offset="1" stop-color="#fdb4ff"/>
    </linearGradient>
    <linearGradient id="linear-gradient-6" x1="66.5" y1="1" x2="66.3" y2="14.8" gradientTransform="translate(0 38) scale(1 -1)" gradientUnits="userSpaceOnUse">
      <stop offset="0" stop-color="#f90"/>
      <stop offset=".4" stop-color="#ff17f6"/>
      <stop offset="1" stop-color="#fdb4ff"/>
    </linearGradient>
    <linearGradient id="linear-gradient-7" x1="79.2" y1="1.2" x2="79" y2="15" gradientTransform="translate(0 38) scale(1 -1)" gradientUnits="userSpaceOnUse">
      <stop offset="0" stop-color="#f90"/>
      <stop offset=".4" stop-color="#ff17f6"/>
      <stop offset="1" stop-color="#fdb4ff"/>
    </linearGradient>
    <linearGradient id="linear-gradient-8" x1="87.5" y1="1.4" x2="87.3" y2="15.1" gradientTransform="translate(0 38) scale(1 -1)" gradientUnits="userSpaceOnUse">
      <stop offset="0" stop-color="#f90"/>
      <stop offset=".4" stop-color="#ff17f6"/>
      <stop offset="1" stop-color="#fdb4ff"/>
    </linearGradient>
    <linearGradient id="linear-gradient-9" x1="96.9" y1="1.5" x2="96.7" y2="15.2" gradientTransform="translate(0 38) scale(1 -1)" gradientUnits="userSpaceOnUse">
      <stop offset="0" stop-color="#f90"/>
      <stop offset=".4" stop-color="#ff17f6"/>
      <stop offset="1" stop-color="#fdb4ff"/>
    </linearGradient>
    <linearGradient id="linear-gradient-10" x1="111" y1="1.7" x2="110.8" y2="15.5" gradientTransform="translate(0 38) scale(1 -1)" gradientUnits="userSpaceOnUse">
      <stop offset="0" stop-color="#f90"/>
      <stop offset=".4" stop-color="#ff17f6"/>
      <stop offset="1" stop-color="#fdb4ff"/>
    </linearGradient>
    <linearGradient id="linear-gradient-11" x1="22.9" y1=".4" x2="20" y2="38.1" gradientTransform="translate(0 38) scale(1 -1)" gradientUnits="userSpaceOnUse">
      <stop offset="0" stop-color="#f90"/>
      <stop offset=".4" stop-color="#ff17f6"/>
      <stop offset="1" stop-color="#fdb4ff"/>
    </linearGradient>
    <linearGradient id="linear-gradient-12" x1="21.4" y1=".3" x2="18.5" y2="37.9" gradientTransform="translate(0 38) scale(1 -1)" gradientUnits="userSpaceOnUse">
      <stop offset="0" stop-color="#f90"/>
      <stop offset=".4" stop-color="#ff17f6"/>
      <stop offset="1" stop-color="#fdb4ff"/>
    </linearGradient>
  </defs>
  <path class="cls-1" d="M53.9,12.7h-2.8s0,.3-.2.8c-.1.6-.3,1.2-.5,2-.2.8-.4,1.5-.5,2.1-.1.6-.2,1-.3,1.2h-4.6s3.8-15.6,3.8-15.6C49.5,1,50.8,0,52.7,0h9c1.3,0,2.3.5,3.1,1.5.8,1,1,2.1.8,3.4-.3,1.1-.5,2-.7,2.7-.2.7-.3,1.4-.5,2-.2.9-.7,1.6-1.4,2.2-.7.6-1.6.9-2.5.9h-1.7s3.5,6.1,3.5,6.1h-4.9s-3.5-6.1-3.5-6.1h0ZM61.2,5c0-.2,0-.3-.1-.4-.1-.1-.2-.2-.4-.2h-7.1c0,0-.2,0-.3,0-.1,0-.2.2-.2.3l-.8,3.6h7.6c.3,0,.5,0,.6-.4l.8-3h0Z"/>
  <path class="cls-6" d="M67.6,3.2c.8-2.1,2.2-3.1,4.2-3.1h0c0,0,.6,0,1.4,0,.9,0,1.9,0,3.1,0,1.2,0,2.3,0,3.2,0,1,0,1.6,0,1.8,0,1.4,0,2.5.5,3.3,1.5.8,1,1.1,2.1.9,3.4l-.3,1.3c-.2,1-.5,2.1-.9,3.5-.3,1.4-.7,2.7-.9,3.8s-.5,1.9-.5,2.2c-.7,2.1-2.1,3.1-4.2,3.1,0,0-.6,0-1.4,0-.9,0-1.9,0-3.1,0-1.2,0-2.2,0-3.2,0-1,0-1.6,0-1.8,0-1.4,0-2.5-.5-3.4-1.5-.8-1-1.1-2.1-.9-3.4.5-2,.9-3.7,1.2-5.1.3-1.3.6-2.6.9-3.7.3-1.1.4-1.8.5-2.1h0ZM77.9,14.6c.3,0,.5-.2.6-.5.4-1.7.8-3.1,1-4.2.3-1.1.5-2.1.8-3.1.2-.9.4-1.5.4-1.7,0-.2,0-.3-.1-.5,0-.1-.3-.2-.5-.2h0c0,0-.4,0-1.1,0-.7,0-1.5,0-2.4,0-.9,0-1.8,0-2.5,0-.8,0-1.2,0-1.4,0-.3,0-.5.2-.6.5,0,0-.1.5-.3,1.3-.2.8-.4,1.8-.7,2.9-.3,1.1-.5,2.1-.7,3.1-.2.9-.4,1.5-.4,1.7,0,.2,0,.3.1.5.1.1.3.2.5.2s.4,0,1.1,0c.7,0,1.5,0,2.4,0,.9,0,1.8,0,2.5,0,.8,0,1.2,0,1.4,0h0Z"/>
  <path class="cls-7" d="M91.8.2h9c1.3,0,2.3.5,3.1,1.5.8,1,1.1,2.1.8,3.4,0,0,0,.2,0,.4,0,.3-.1.6-.2.9,0,.3-.2.7-.3,1,0,.3-.2.5-.3.7-.3.5-.7.9-1.2,1.2-.5.3-.9.5-1.2.6,0,0,0,0,.2.1,0,0,.2.1.3.2,0,0,.1.1.2.2.7.9.9,1.9.7,3h0c0,.1,0,.3-.2.7,0,.3-.2.7-.3,1,0,.4-.2.6-.2.7-.7,2.1-2.1,3.1-4,3.1-.1,0-.8,0-2.2,0-1.3,0-2.8,0-4.6,0-1.8,0-3.4,0-4.8,0-1.4,0-2.3,0-2.6,0,.7-3,1.3-5.4,1.8-7.4.5-2,.9-3.7,1.3-5.3.4-1.6.6-2.6.7-2.9.7-2.1,2-3.1,3.9-3.1h0ZM89.6,14.6h7.8c0,0,.2,0,.2,0,0,0,.1-.1.2-.2,0,0,0-.1,0-.2,0,0,0,0,0-.1,0,0,0-.2,0-.2,0,0,0-.2,0-.3,0,0,0-.1,0-.2,0-.4,0-.8-.2-1.1-.2-.3-.6-.5-1-.5h0c0,0-.4,0-1,0-.6,0-1.3,0-2.1,0-.8,0-1.5,0-2.2,0-.7,0-1.1,0-1.2,0-.1.5-.2,1-.3,1.3,0,.4-.2.7-.2,1,0,.3-.1.5-.1.6ZM91.9,4.9l-.6,2.4c0,0,.4,0,1.1,0,.7,0,1.4,0,2.3,0,.9,0,1.7,0,2.4,0,.7,0,1.2,0,1.3,0,.3,0,.6,0,.8-.3.2-.2.4-.4.5-.7,0-.2.1-.4.2-.6,0-.1,0-.3.1-.4,0-.1,0-.2,0-.3,0-.2,0-.3-.1-.5-.1-.1-.2-.2-.4-.2s-.4,0-1.1,0c-.7,0-1.4,0-2.3,0-.9,0-1.7,0-2.4,0-.7,0-1.2,0-1.3,0s-.2,0-.3.1c-.1,0-.2.2-.2.3h0Z"/>
  <path class="cls-5" d="M124,.3l-9,10.4-1.9,8.2h-4.7s2.1-8.6,2.1-8.6L105.5.2h5.1s2.8,5.8,2.8,5.8l5-5.7h5.6s0,0,0,0Z"/>
  <path class="cls-11" d="M49.8,25.1c.5-1.4,1.4-2.1,2.7-2.1h8.7s-.7,3-.7,3h-7.5c0,0-.1,0-.2,0,0,0-.1.1-.2.2l-1.5,6.1c0,.1,0,.2,0,.3,0,0,.2.1.3.1h7.3c-.2.9-.5,1.9-.7,2.9h-7.4c-1,0-1.7-.4-2.2-1.1-.5-.7-.6-1.4-.5-2.2l1.8-7.4h0Z"/>
  <path class="cls-12" d="M61.8,25.1c.5-1.4,1.4-2.1,2.6-2.1h9.2s-3.1,12.8-3.1,12.8h-3s.9-3.5.9-3.5l1.5-6.3h-5.1c0,0-.1,0-.2,0,0,0-.1.1-.2.2l-.8,3.1h4.5s-.7,2.9-.7,2.9h-4.5s-.9,3.5-.9,3.5h-3s2.6-10.6,2.6-10.6Z"/>
  <path class="cls-10" d="M77.5,26c0,0-.2,0-.2,0,0,0-.1.1-.1.2,0,.2-.1.4-.1.6,0,.2,0,.3-.1.4,0,.1,0,.2,0,.3,0,.1,0,.2,0,.3,0,0,.2.1.3.1h.7c.4,0,.9,0,1.5,0,.6,0,1.1,0,1.6,0,.5,0,.8,0,.9,0,.8,0,1.5.3,2,1,.5.7.7,1.4.5,2.3,0,0,0,0,0,0,0,0,0,.1,0,.3,0,.2-.1.5-.2.8,0,.3-.1.6-.2.8,0,.3-.1.4-.1.5-.2.6-.5,1.1-1,1.5-.5.4-1.1.6-1.7.6h0c0,0-.6,0-1.4,0-.8,0-1.8,0-3,0-1.1,0-2.2,0-3.1,0-.9,0-1.5,0-1.7,0,.1-.5.2-1,.3-1.4,0-.4.2-.7.2-1,0-.3.1-.5.1-.6,0,0,.5,0,1.2,0,.7,0,1.6,0,2.6,0s1.9,0,2.7,0,1.3,0,1.5,0,.3,0,.4-.3c0-.2.1-.4.1-.6,0-.2,0-.3.1-.4,0-.1,0-.2,0-.3,0-.1,0-.2,0-.3,0,0-.2-.1-.3-.1h0-.7c-.4,0-.9,0-1.5,0-.6,0-1.1,0-1.5,0-.5,0-.8,0-.9,0-.8,0-1.5-.3-2-1-.5-.6-.7-1.4-.5-2.3h0s0-.1,0-.1c0-.1.1-.4.2-.7,0-.3.2-.7.2-1,0-.3.1-.5.2-.6.5-1.4,1.4-2.1,2.7-2h0c0,0,.6,0,1.4,0,.8,0,1.8,0,3,0,1.1,0,2.2,0,3.1,0,.9,0,1.5,0,1.7,0-.1.5-.2,1-.3,1.3,0,.4-.2.7-.2,1,0,.3-.1.5-.1.6,0,0-.5,0-1.2,0-.7,0-1.6,0-2.6,0-1,0-1.9,0-2.7,0-.8,0-1.3,0-1.5,0h0Z"/>
  <path class="cls-8" d="M87,25.3c.5-1.4,1.4-2.1,2.7-2.1h.8l-3.1,12.7h-3s2.6-10.6,2.6-10.6h0Z"/>
  <path class="cls-9" d="M91.4,25.3c.5-1.4,1.4-2.1,2.7-2.1h.8l5.5,6.6,1.5-6.6h3s-3.1,12.7-3.1,12.7h-3s.6-2.4.6-2.4l-5.4-6.6-2.2,8.9h-3s2.6-10.6,2.6-10.6h0Z"/>
  <path class="cls-4" d="M105.7,25.3c.6-1.4,1.5-2.1,2.9-2.1h0c0,0,.4,0,1,0,.6,0,1.3,0,2.1,0,.8,0,1.5,0,2.2,0,.7,0,1.1,0,1.2,0,.9,0,1.7.3,2.2,1,.6.7.8,1.4.6,2.3l-.2.9c-.2.6-.4,1.4-.6,2.4-.2.9-.5,1.8-.6,2.6-.2.8-.3,1.3-.4,1.5-.5,1.4-1.5,2.1-2.9,2.1,0,0-.4,0-1,0-.6,0-1.3,0-2.1,0-.8,0-1.5,0-2.2,0-.7,0-1.1,0-1.2,0-.9,0-1.7-.3-2.3-1-.6-.7-.8-1.4-.6-2.3.3-1.4.6-2.5.8-3.4.2-.9.4-1.7.6-2.5.2-.8.3-1.2.3-1.4h0ZM112.7,33.1c.2,0,.3-.1.4-.3.3-1.2.5-2.1.7-2.9.2-.8.4-1.5.5-2.1.2-.6.2-1,.3-1.2,0-.1,0-.2,0-.3,0,0-.2-.1-.3-.1h0s-.3,0-.8,0c-.5,0-1,0-1.6,0-.6,0-1.2,0-1.7,0s-.8,0-.9,0c-.2,0-.3.1-.4.3,0,0,0,.3-.2.9-.1.6-.3,1.2-.5,2-.2.8-.4,1.5-.5,2.1-.2.6-.3,1-.3,1.2,0,.1,0,.2,0,.3,0,0,.2.1.3.1,0,0,.3,0,.8,0,.5,0,1,0,1.6,0,.6,0,1.2,0,1.7,0s.8,0,1,0h0Z"/>
  <path class="cls-2" d="M25,16.5l.8-3c0-.2,0-.3-.1-.5-.1-.1-.3-.2-.4-.2h-7.3c-.1,0-.2,0-.3,0-.1,0-.2.2-.2.3l-.8,3.6h7.9c.3,0,.5,0,.6-.4h0Z"/>
  <path class="cls-3" d="M38.8,14.7l-6.7-11.4c-1.2-2-3.3-3.3-5.7-3.3h-13.3c-2.3,0-4.5,1.2-5.7,3.3L.9,14.7c-1.2,2-1.2,4.5,0,6.5l6.4,11h18.1c1.7,0,3.3-.9,4.1-2.4l5.5-9.5c.8-1.5.8-3.3,0-4.7h0c0-.1-5.4-9.5-5.4-9.5-.8-1.5-2.4-2.4-4.1-2.4h-11.1c-1.7,0-3.3.9-4.1,2.4l-5.5,9.5c-.8,1.5-.8,3.3,0,4.7l2,3.5-.4,2-2.8-4.8c-1.1-1.9-1.1-4.2,0-6.1l5.5-9.5c1.1-1.9,3.1-3,5.3-3h11.1c2.2,0,4.2,1.2,5.3,3l5.6,9.7h0c1,1.9,1,4.1,0,5.9l-5.5,9.5c-1.1,1.9-3.1,3-5.3,3H8.2c1.2,1.5,3.1,2.3,5,2.3h13.3c2.3,0,4.5-1.2,5.7-3.3l6.7-11.4c1.2-2,1.2-4.5,0-6.5h0ZM13.1,11.5c.8-2.1,2.1-3.1,4.1-3.1h9.3c1.3,0,2.4.5,3.2,1.5.8,1,1.1,2.1.8,3.4-.3,1.1-.5,2-.7,2.8-.2.7-.4,1.4-.5,2.1-.2.9-.7,1.7-1.5,2.3-.7.6-1.6.9-2.6.9h-1.7s3.7,6.2,3.7,6.2h-5.1s-3.7-6.2-3.7-6.2h-2.9s0,.3-.2.8c-.1.6-.3,1.2-.5,2-.2.8-.4,1.5-.5,2.1-.2.6-.3,1-.3,1.2h-4.7s3.9-15.9,3.9-15.9h0Z"/>
</svg>